<svg width="6" height="12" viewBox="0 0 6 12" fill="none" xmlns="http://www.w3.org/2000/svg">
<path opacity="0.6" d="M4.49413 11.5C4.38746 11.5 4.29679 11.468 4.22213 11.404C4.15813 11.3293 4.12613 11.2387 4.12613 11.132V2.172L1.47013 4.22C1.26746 4.36933 1.09679 4.348 0.958125 4.156L0.542125 3.628C0.478125 3.54267 0.451458 3.452 0.462125 3.356C0.483458 3.24933 0.536792 3.164 0.622125 3.1L4.11013 0.412C4.18479 0.369333 4.25413 0.342666 4.31813 0.332C4.38213 0.310666 4.45146 0.299999 4.52613 0.299999H5.34213C5.44879 0.299999 5.53413 0.337333 5.59813 0.412C5.67279 0.476 5.71013 0.561333 5.71013 0.667999V11.132C5.71013 11.2387 5.67279 11.3293 5.59813 11.404C5.53413 11.468 5.44879 11.5 5.34213 11.5H4.49413Z" fill="#444444"/>
</svg>
